<svg xmlns="http://www.w3.org/2000/svg" xmlns:xlink="http://www.w3.org/1999/xlink" width="144" height="54" viewBox="0 0 143.5393524169922 54" role="img" aria-label="control_delete_this_clone"><g transform="translate(3 3)"><g data-id="export-control_delete_this_clone" class="blocklyDraggable" data-shapes="stack end" data-category="control" style="fill: rgb(0, 0, 0); fill-opacity: 1; stroke: none; stroke-width: 1px; stroke-linecap: butt; stroke-linejoin: miter; opacity: 1; font-family: &quot;Helvetica Neue&quot;, Helvetica, Arial, sans-serif; font-size: 16px; font-weight: 400; text-anchor: start; dominant-baseline: auto;"><path class="blocklyPath blocklyBlockBackground" stroke="#CF8B17" fill="#FFAB19" fill-opacity="1" d="m 0,4 A 4,4 0 0,1 4,0 H 12 c 2,0 3,1 4,2 l 4,4 c 1,1 2,2 4,2 h 12 c 2,0 3,-1 4,-2 l 4,-4 c 1,-1 2,-2 4,-2 H 133.5393524169922 a 4,4 0 0,1 4,4 v 40  a 4,4 0 0,1 -4,4 H 4 a 4,4 0 0,1 -4,-4 z" style="fill: rgb(255, 171, 25); fill-opacity: 1; stroke: rgb(207, 139, 23); stroke-width: 1px; stroke-linecap: butt; stroke-linejoin: miter; opacity: 1; display: inline; font-family: &quot;Helvetica Neue&quot;, Helvetica, Arial, sans-serif; font-size: 16px; font-weight: 400; text-anchor: start; dominant-baseline: auto;"/><text class="blocklyText" y="2" text-anchor="middle" dominant-baseline="middle" dy="0" x="60.769676208496094" transform="translate(8, 24) " style="fill: rgb(255, 255, 255); fill-opacity: 1; stroke: none; stroke-width: 1px; stroke-linecap: butt; stroke-linejoin: miter; opacity: 1; display: block; font-family: &quot;Helvetica Neue&quot;, Helvetica, sans-serif; font-size: 16px; font-weight: 500; text-anchor: middle; dominant-baseline: middle;">delete this clone</text></g></g></svg>