<svg xmlns="http://www.w3.org/2000/svg" xmlns:xlink="http://www.w3.org/1999/xlink" width="206" height="62" viewBox="0 0 205.171875 62" role="img" aria-label="sound_changevolumeby"><g transform="translate(3 3)"><g data-id="export-sound_changevolumeby" class="blocklyDraggable" data-shapes="stack" data-category="sounds" style="fill: rgb(0, 0, 0); fill-opacity: 1; stroke: none; stroke-width: 1px; stroke-linecap: butt; stroke-linejoin: miter; opacity: 1; font-family: &quot;Helvetica Neue&quot;, Helvetica, Arial, sans-serif; font-size: 16px; font-weight: 400; text-anchor: start; dominant-baseline: auto;"><path class="blocklyPath blocklyBlockBackground" stroke="#BD42BD" fill="#CF63CF" fill-opacity="1" d="m 0,4 A 4,4 0 0,1 4,0 H 12 c 2,0 3,1 4,2 l 4,4 c 1,1 2,2 4,2 h 12 c 2,0 3,-1 4,-2 l 4,-4 c 1,-1 2,-2 4,-2 H 195.171875 a 4,4 0 0,1 4,4 v 40  a 4,4 0 0,1 -4,4 H 48   c -2,0 -3,1 -4,2 l -4,4 c -1,1 -2,2 -4,2 h -12 c -2,0 -3,-1 -4,-2 l -4,-4 c -1,-1 -2,-2 -4,-2 H 4 a 4,4 0 0,1 -4,-4 z" style="fill: rgb(207, 99, 207); fill-opacity: 1; stroke: rgb(189, 66, 189); stroke-width: 1px; stroke-linecap: butt; stroke-linejoin: miter; opacity: 1; display: inline; font-family: &quot;Helvetica Neue&quot;, Helvetica, Arial, sans-serif; font-size: 16px; font-weight: 400; text-anchor: start; dominant-baseline: auto;"/><g data-id="n9plIdGFs)B1A4EX2VYv" data-argument-type="text" style="cursor: text; fill: rgb(0, 0, 0); fill-opacity: 1; stroke: none; stroke-width: 1px; stroke-linecap: butt; stroke-linejoin: miter; opacity: 1; display: inline; font-family: &quot;Helvetica Neue&quot;, Helvetica, Arial, sans-serif; font-size: 16px; font-weight: 400; text-anchor: start; dominant-baseline: auto;" data-shapes="argument round" transform="translate(151.171875,8)"><path class="blocklyPath blocklyBlockBackground" stroke="#BD42BD" fill="#FFFFFF" fill-opacity="1" d="m 0,0 m 16,0 H 24 a 16 16 0 0 1 0 32 H 16 a 16 16 0 0 1 0 -32 z" style="fill: rgb(255, 255, 255); fill-opacity: 1; stroke: rgb(189, 66, 189); stroke-width: 1px; stroke-linecap: butt; stroke-linejoin: miter; opacity: 1; display: inline; font-family: &quot;Helvetica Neue&quot;, Helvetica, Arial, sans-serif; font-size: 16px; font-weight: 400; text-anchor: start; dominant-baseline: auto;"/><g class="blocklyEditableText" transform="translate(8, 0) " style="fill: rgb(0, 0, 0); fill-opacity: 1; stroke: none; stroke-width: 1px; stroke-linecap: butt; stroke-linejoin: miter; opacity: 1; display: inline; font-family: &quot;Helvetica Neue&quot;, Helvetica, Arial, sans-serif; font-size: 16px; font-weight: 400; text-anchor: start; dominant-baseline: auto;"><text class="blocklyText" x="12" y="18" dominant-baseline="middle" dy="0" text-anchor="middle" style="fill: rgb(87, 94, 117); fill-opacity: 1; stroke: none; stroke-width: 1px; stroke-linecap: butt; stroke-linejoin: miter; opacity: 1; display: block; font-family: &quot;Helvetica Neue&quot;, Helvetica, sans-serif; font-size: 16px; font-weight: 500; text-anchor: middle; dominant-baseline: middle;">10</text></g></g><text class="blocklyText" y="2" text-anchor="middle" dominant-baseline="middle" dy="0" x="67.5859375" transform="translate(8, 24) " style="fill: rgb(255, 255, 255); fill-opacity: 1; stroke: none; stroke-width: 1px; stroke-linecap: butt; stroke-linejoin: miter; opacity: 1; display: block; font-family: &quot;Helvetica Neue&quot;, Helvetica, sans-serif; font-size: 16px; font-weight: 500; text-anchor: middle; dominant-baseline: middle;">change volume by</text><path class="blocklyPath" style="visibility: hidden; fill: rgb(189, 66, 189); fill-opacity: 1; stroke: none; stroke-width: 1px; stroke-linecap: butt; stroke-linejoin: miter; opacity: 1; display: inline; font-family: &quot;Helvetica Neue&quot;, Helvetica, Arial, sans-serif; font-size: 16px; font-weight: 400; text-anchor: start; dominant-baseline: auto;" d="" fill="#BD42BD"/></g></g></svg>